<?xml version="1.0" encoding="UTF-8"?>
<svg version="1.1" xmlns="http://www.w3.org/2000/svg" width="512" height="512">
<path d="M0 0 C105.6 0 211.2 0 320 0 C320 68.64 320 137.28 320 208 C214.4 208 108.8 208 0 208 C0 139.36 0 70.72 0 0 Z M114 19 C112.13216952 21.48103221 112.13216952 21.48103221 110.57421875 24.43359375 C109.94974854 25.54492676 109.32527832 26.65625977 108.68188477 27.80126953 C108.01693198 29.01325975 107.35214091 30.22533872 106.6875 31.4375 C105.99341523 32.68155811 105.29800029 33.92487493 104.60131836 35.16748047 C103.14352479 37.76983301 101.69161656 40.37534811 100.24316406 42.98291016 C96.9257652 48.9408395 93.52432681 54.85073426 90.12979126 60.7649231 C88.42866801 63.7296434 86.73140027 66.6965472 85.03515625 69.6640625 C84.4719165 70.64842285 83.90867676 71.6327832 83.32836914 72.64697266 C81.19569626 76.42471595 80.55899387 78.58993866 81 83 C83.09110663 86.05623277 84.29306849 86.86463014 87.9375 87.5625 C91.93122513 86.82895865 93.59510455 85.10709055 96 82 C98.4832968 77.98769476 100.70525479 73.84344272 102.9375 69.6875 C104.25959085 67.25782012 105.58846186 64.83187818 106.91796875 62.40625 C107.25414215 61.79134201 107.59031555 61.17643402 107.93667603 60.54289246 C111.97953951 53.17106299 116.24349582 45.93095243 120.51928711 38.69213867 C126.00907133 30.73489539 126.00907133 30.73489539 127.5 21.8125 C125.75549815 18.54155902 124.34724785 17.50626153 121 16 C117.97467845 16 116.44453617 17.26312305 114 19 Z M54.375 37 C53.47346191 37.60642334 53.47346191 37.60642334 52.55371094 38.22509766 C51.31122331 39.06180175 50.07228933 39.90380645 48.83691406 40.75097656 C47.07113384 41.95163201 45.28781203 43.11801866 43.4921875 44.2734375 C37.55664726 47.9095696 37.55664726 47.9095696 33 53 C32.4161804 55.9149255 32.4161804 55.9149255 33 59 C37.31773661 64.20668238 43.07268882 67.58038781 48.6875 71.25 C50.13092773 72.20519531 50.13092773 72.20519531 51.60351562 73.1796875 C58.661129 78.18737198 58.661129 78.18737198 67 79 C70.05623277 76.90889337 70.86463014 75.70693151 71.5625 72.0625 C70.82286676 68.03560792 69.17906412 66.34388625 66 64 C63.10563832 62.13004723 60.19083825 60.31448884 57.23046875 58.55078125 C56.49441406 58.03902344 55.75835937 57.52726562 55 57 C55 56.34 55 55.68 55 55 C57.26580365 53.44115075 59.52597548 51.98524577 61.875 50.5625 C67.0545645 47.49443006 67.0545645 47.49443006 71 43 C71.46155369 39.38449608 71.45406883 37.66363906 69.375 34.625 C63.85523855 30.84832111 59.29214914 33.56855816 54.375 37 Z M138.625 34.625 C136.48676569 37.75011169 136.3170331 39.28162465 137 43 C140.55978821 47.78730139 145.70111511 50.42959434 150.76953125 53.44921875 C151.50558594 53.96097656 152.24164063 54.47273438 153 55 C153 55.66 153 56.32 153 57 C150.73419635 58.55884925 148.47402452 60.01475423 146.125 61.4375 C140.9454355 64.50556994 140.9454355 64.50556994 137 69 C136.53844631 72.61550392 136.54593117 74.33636094 138.625 77.375 C141.77137166 79.52778061 143.21551455 79.43479434 147 79 C149.74131275 77.76478105 152.18830838 76.16351972 154.6875 74.5 C155.38431885 74.04947266 156.0811377 73.59894531 156.79907227 73.13476562 C167.21334189 67.25005319 167.21334189 67.25005319 175 59 C175.50095023 56.12693772 175.50095023 56.12693772 175 53 C170.69412731 47.7876278 164.92367812 44.41723777 159.3125 40.75 C158.35021484 40.11320312 157.38792969 39.47640625 156.39648438 38.8203125 C148.00878111 32.57833195 148.00878111 32.57833195 138.625 34.625 Z M74 107 C72.57958179 109.84083641 72.68547728 111.85477278 73 115 C75.23206431 117.84780619 76.54992999 118.84997666 80 120 C82.61864161 120.1484944 85.1932477 120.2310027 87.8125 120.25 C88.86147461 120.2809375 88.86147461 120.2809375 89.93164062 120.3125 C94.71364934 120.34828678 97.95535999 119.55190151 102 117 C103.42041821 114.15916359 103.31452272 112.14522722 103 109 C100.76793569 106.15219381 99.45007001 105.15002334 96 104 C93.38135839 103.8515056 90.8067523 103.7689973 88.1875 103.75 C87.13852539 103.7190625 87.13852539 103.7190625 86.06835938 103.6875 C81.28635066 103.65171322 78.04464001 104.44809849 74 107 Z M122 107 C120.57958179 109.84083641 120.68547728 111.85477278 121 115 C123.23206431 117.84780619 124.54992999 118.84997666 128 120 C129.52185956 120.09517575 131.04751931 120.13487897 132.57234192 120.14044189 C133.97909935 120.14900711 133.97909935 120.14900711 135.41427612 120.15774536 C136.44134674 120.15886322 137.46841736 120.15998108 138.52661133 120.16113281 C139.60981155 120.16609772 140.69301178 120.17106262 141.80903625 120.17617798 C145.400041 120.19080833 148.99100157 120.19760308 152.58203125 120.203125 C155.07443748 120.20887572 157.56684368 120.21463346 160.05924988 120.22039795 C164.62026264 120.22956629 169.18126271 120.23586559 173.74228364 120.2388947 C179.78179032 120.24292807 185.82114153 120.25520358 191.8605957 120.28125 C198.34147847 120.30877052 204.82222775 120.32164204 211.30316734 120.32357025 C213.77391355 120.32659838 216.24465887 120.33463226 218.71537209 120.34775543 C222.17214038 120.36480533 225.62841182 120.36293796 229.08520508 120.35644531 C230.106203 120.3656601 231.12720093 120.37487488 232.17913818 120.3843689 C237.51992373 120.3529373 241.41901391 120.08447249 246 117 C247.42041821 114.15916359 247.31452272 112.14522722 247 109 C244.76793569 106.15219381 243.45007001 105.15002334 240 104 C238.47814044 103.90482425 236.95248069 103.86512103 235.42765808 103.85955811 C234.48981979 103.85384796 233.55198151 103.84813782 232.58572388 103.84225464 C231.55865326 103.84113678 230.53158264 103.84001892 229.47338867 103.83886719 C228.39018845 103.83390228 227.30698822 103.82893738 226.19096375 103.82382202 C222.599959 103.80919167 219.00899843 103.80239692 215.41796875 103.796875 C212.92556252 103.79112428 210.43315632 103.78536654 207.94075012 103.77960205 C203.37973736 103.77043371 198.81873729 103.76413441 194.25771636 103.7611053 C188.21820968 103.75707193 182.17885847 103.74479642 176.1394043 103.71875 C169.65852153 103.69122948 163.17777225 103.67835796 156.69683266 103.67642975 C154.22608645 103.67340162 151.75534113 103.66536774 149.28462791 103.65224457 C145.82785962 103.63519467 142.37158818 103.63706204 138.91479492 103.64355469 C137.893797 103.6343399 136.87279907 103.62512512 135.82086182 103.6156311 C130.48007627 103.6470627 126.58098609 103.91552751 122 107 Z M74 139 C72.57958179 141.84083641 72.68547728 143.85477278 73 147 C75.23206431 149.84780619 76.54992999 150.84997666 80 152 C81.52185956 152.09517575 83.04751931 152.13487897 84.57234192 152.14044189 C85.97909935 152.14900711 85.97909935 152.14900711 87.41427612 152.15774536 C88.44134674 152.15886322 89.46841736 152.15998108 90.52661133 152.16113281 C91.60981155 152.16609772 92.69301178 152.17106262 93.80903625 152.17617798 C97.400041 152.19080833 100.99100157 152.19760308 104.58203125 152.203125 C107.07443748 152.20887572 109.56684368 152.21463346 112.05924988 152.22039795 C116.62026264 152.22956629 121.18126271 152.23586559 125.74228364 152.2388947 C131.78179032 152.24292807 137.82114153 152.25520358 143.8605957 152.28125 C150.34147847 152.30877052 156.82222775 152.32164204 163.30316734 152.32357025 C165.77391355 152.32659838 168.24465887 152.33463226 170.71537209 152.34775543 C174.17214038 152.36480533 177.62841182 152.36293796 181.08520508 152.35644531 C182.106203 152.3656601 183.12720093 152.37487488 184.17913818 152.3843689 C189.51992373 152.3529373 193.41901391 152.08447249 198 149 C199.42041821 146.15916359 199.31452272 144.14522722 199 141 C196.76793569 138.15219381 195.45007001 137.15002334 192 136 C190.47814044 135.90482425 188.95248069 135.86512103 187.42765808 135.85955811 C186.48981979 135.85384796 185.55198151 135.84813782 184.58572388 135.84225464 C183.55865326 135.84113678 182.53158264 135.84001892 181.47338867 135.83886719 C180.39018845 135.83390228 179.30698822 135.82893738 178.19096375 135.82382202 C174.599959 135.80919167 171.00899843 135.80239692 167.41796875 135.796875 C164.92556252 135.79112428 162.43315632 135.78536654 159.94075012 135.77960205 C155.37973736 135.77043371 150.81873729 135.76413441 146.25771636 135.7611053 C140.21820968 135.75707193 134.17885847 135.74479642 128.1394043 135.71875 C121.65852153 135.69122948 115.17777225 135.67835796 108.69683266 135.67642975 C106.22608645 135.67340162 103.75534113 135.66536774 101.28462791 135.65224457 C97.82785962 135.63519467 94.37158818 135.63706204 90.91479492 135.64355469 C89.893797 135.6343399 88.87279907 135.62512512 87.82086182 135.6156311 C82.48007627 135.6470627 78.58098609 135.91552751 74 139 Z M218 139 C216.57958179 141.84083641 216.68547728 143.85477278 217 147 C219.23206431 149.84780619 220.54992999 150.84997666 224 152 C226.61864161 152.1484944 229.1932477 152.2310027 231.8125 152.25 C232.86147461 152.2809375 232.86147461 152.2809375 233.93164062 152.3125 C238.71364934 152.34828678 241.95535999 151.55190151 246 149 C247.42041821 146.15916359 247.31452272 144.14522722 247 141 C244.76793569 138.15219381 243.45007001 137.15002334 240 136 C237.38135839 135.8515056 234.8067523 135.7689973 232.1875 135.75 C231.13852539 135.7190625 231.13852539 135.7190625 230.06835938 135.6875 C225.28635066 135.65171322 222.04464001 136.44809849 218 139 Z M74 171 C72.57958179 173.84083641 72.68547728 175.85477278 73 179 C75.23206431 181.84780619 76.54992999 182.84997666 80 184 C82.61864161 184.1484944 85.1932477 184.2310027 87.8125 184.25 C88.86147461 184.2809375 88.86147461 184.2809375 89.93164062 184.3125 C94.71364934 184.34828678 97.95535999 183.55190151 102 181 C103.42041821 178.15916359 103.31452272 176.14522722 103 173 C100.76793569 170.15219381 99.45007001 169.15002334 96 168 C93.38135839 167.8515056 90.8067523 167.7689973 88.1875 167.75 C87.13852539 167.7190625 87.13852539 167.7190625 86.06835938 167.6875 C81.28635066 167.65171322 78.04464001 168.44809849 74 171 Z M122 171 C120.57958179 173.84083641 120.68547728 175.85477278 121 179 C123.23206431 181.84780619 124.54992999 182.84997666 128 184 C129.52185956 184.09517575 131.04751931 184.13487897 132.57234192 184.14044189 C133.97909935 184.14900711 133.97909935 184.14900711 135.41427612 184.15774536 C136.44134674 184.15886322 137.46841736 184.15998108 138.52661133 184.16113281 C139.60981155 184.16609772 140.69301178 184.17106262 141.80903625 184.17617798 C145.400041 184.19080833 148.99100157 184.19760308 152.58203125 184.203125 C155.07443748 184.20887572 157.56684368 184.21463346 160.05924988 184.22039795 C164.62026264 184.22956629 169.18126271 184.23586559 173.74228364 184.2388947 C179.78179032 184.24292807 185.82114153 184.25520358 191.8605957 184.28125 C198.34147847 184.30877052 204.82222775 184.32164204 211.30316734 184.32357025 C213.77391355 184.32659838 216.24465887 184.33463226 218.71537209 184.34775543 C222.17214038 184.36480533 225.62841182 184.36293796 229.08520508 184.35644531 C230.106203 184.3656601 231.12720093 184.37487488 232.17913818 184.3843689 C237.51992373 184.3529373 241.41901391 184.08447249 246 181 C247.42041821 178.15916359 247.31452272 176.14522722 247 173 C244.76793569 170.15219381 243.45007001 169.15002334 240 168 C238.47814044 167.90482425 236.95248069 167.86512103 235.42765808 167.85955811 C234.48981979 167.85384796 233.55198151 167.84813782 232.58572388 167.84225464 C231.55865326 167.84113678 230.53158264 167.84001892 229.47338867 167.83886719 C228.39018845 167.83390228 227.30698822 167.82893738 226.19096375 167.82382202 C222.599959 167.80919167 219.00899843 167.80239692 215.41796875 167.796875 C212.92556252 167.79112428 210.43315632 167.78536654 207.94075012 167.77960205 C203.37973736 167.77043371 198.81873729 167.76413441 194.25771636 167.7611053 C188.21820968 167.75707193 182.17885847 167.74479642 176.1394043 167.71875 C169.65852153 167.69122948 163.17777225 167.67835796 156.69683266 167.67642975 C154.22608645 167.67340162 151.75534113 167.66536774 149.28462791 167.65224457 C145.82785962 167.63519467 142.37158818 167.63706204 138.91479492 167.64355469 C137.893797 167.6343399 136.87279907 167.62512512 135.82086182 167.6156311 C130.48007627 167.6470627 126.58098609 167.91552751 122 171 Z " fill="#000000" transform="translate(96,64)"/>
<path d="M0 0 C1.31525414 -0.01043099 2.63050827 -0.02086198 3.98561859 -0.03160906 C5.44887 -0.02296045 6.91211921 -0.01393381 8.37536621 -0.00457001 C9.92689856 -0.00917715 11.47842655 -0.01552881 13.02994537 -0.02347898 C17.3002955 -0.04022125 21.57028939 -0.03190387 25.84064102 -0.01953411 C30.44330545 -0.01050588 35.04590744 -0.02444225 39.64855957 -0.0354538 C48.66784918 -0.05326748 57.68700586 -0.04938637 66.70630074 -0.03780323 C74.03455829 -0.02878037 81.36277852 -0.02753993 88.69104004 -0.0318985 C89.73287901 -0.03251143 90.77471799 -0.03312436 91.84812784 -0.03375587 C93.96441079 -0.03503473 96.08069373 -0.03633158 98.19697666 -0.03764623 C118.05496885 -0.04906038 137.91288726 -0.03592525 157.77086735 -0.01444477 C174.82071122 0.00342696 191.87044618 0.00032309 208.92028809 -0.01811981 C228.70580592 -0.0395118 248.49125903 -0.04796166 268.2767868 -0.03567076 C270.38541157 -0.03439652 272.49403635 -0.03313904 274.60266113 -0.0318985 C276.15900512 -0.03097285 276.15900512 -0.03097285 277.74679041 -0.03002849 C285.06871751 -0.02657057 292.39060366 -0.03241344 299.71252441 -0.04181671 C308.63198175 -0.05301951 317.55129823 -0.05003292 326.47073936 -0.02869374 C331.02414073 -0.01816011 335.57730701 -0.01410069 340.13070679 -0.02729034 C344.29560675 -0.03917244 348.46005278 -0.03272138 352.62491131 -0.01138014 C354.13494255 -0.00689623 355.64501182 -0.00922025 357.15501881 -0.01888329 C359.2012202 -0.03097744 361.24752838 -0.01622774 363.29370117 0 C365.00146854 0.00097411 365.00146854 0.00097411 366.74373627 0.00196791 C370.34213037 0.62344628 371.52292244 1.56402286 373.64685059 4.50336456 C374.14364457 6.71858239 374.14364457 6.71858239 374.1390419 9.1810112 C374.15098713 10.59372425 374.15098713 10.59372425 374.16317368 12.03497696 C374.15152302 13.06580524 374.13987236 14.09663353 374.12786865 15.15869904 C374.13129272 16.25385834 374.1347168 17.34901764 374.13824463 18.47736359 C374.14488391 22.17151382 374.12274248 25.8649443 374.10095215 29.55902863 C374.09972728 32.24283055 374.10008222 34.92658913 374.10241318 37.61038589 C374.10454101 44.08087697 374.08606039 50.55114626 374.06040786 57.02158032 C374.03162665 64.50495096 374.02842993 71.98818806 374.02526855 79.47162628 C374.00426052 99.23224091 373.94841614 118.99280605 373.89685059 138.75336456 C373.81435059 182.89086456 373.73185059 227.02836456 373.64685059 272.50336456 C246.92685059 272.50336456 120.20685059 272.50336456 -10.35314941 272.50336456 C-10.43564941 228.36586456 -10.51814941 184.22836456 -10.60314941 138.75336456 C-10.63956543 124.7982962 -10.67598145 110.84322784 -10.71350098 96.46527863 C-10.73156738 79.47162628 -10.73156738 79.47162628 -10.73492432 71.52527618 C-10.73866264 65.9553837 -10.75336958 60.38565071 -10.77545166 54.81580353 C-10.80086432 48.3964132 -10.8125047 41.97717647 -10.80692922 35.55773543 C-10.8045133 32.27191453 -10.81062811 28.98650801 -10.83000994 25.70073366 C-10.84978385 22.18643807 -10.84515516 18.67301287 -10.83416748 15.15869904 C-10.84581814 14.12787075 -10.8574688 13.09704247 -10.8694725 12.03497696 C-10.86150902 11.09316826 -10.85354553 10.15135956 -10.84534073 9.1810112 C-10.84685961 8.36840969 -10.84837849 7.55580819 -10.8499434 6.71858239 C-9.52294679 0.80146861 -5.44098996 0.00310355 0 0 Z M7.64685059 19.50336456 C4.91886067 23.76177477 5.3644592 28.67206082 5.38615417 33.56816864 C5.38232863 34.4829231 5.37850308 35.39767756 5.37456161 36.34015185 C5.36424036 39.40625186 5.36822212 42.4721643 5.37219238 45.53827667 C5.36784544 47.73614933 5.36266236 49.93402046 5.35670471 52.13188934 C5.34330194 58.10289712 5.34273745 64.07384166 5.34526801 70.04486156 C5.3463368 75.02763523 5.34145675 80.01039606 5.33666259 84.99316698 C5.3249283 97.4190379 5.32579503 109.84488062 5.3322194 122.27075256 C5.33738886 133.05904999 5.32613213 143.84725715 5.30712118 154.63553672 C5.28774412 165.71663188 5.27977798 176.79769032 5.28324443 187.87880331 C5.28505911 194.0985422 5.28240256 200.31819838 5.26852989 206.53792381 C5.25597426 212.38609784 5.25787429 218.23409086 5.27094078 224.08226204 C5.273311 226.22928554 5.27055601 228.37632169 5.26231766 230.52333069 C5.25188636 233.45295727 5.25992197 236.38197244 5.27262878 239.31157684 C5.2652545 240.16226161 5.25788021 241.01294639 5.25028247 241.88940948 C5.29497141 246.78301554 5.74398479 250.36510978 8.64685059 254.50336456 C12.33844715 256.38248491 15.38231265 256.75433182 19.49276638 256.75784016 C20.66944234 256.76367235 21.84611831 256.76950454 23.05845112 256.77551347 C24.34715282 256.77173415 25.63585452 256.76795482 26.96360779 256.76406097 C28.34958193 256.76708174 29.7355544 256.77097084 31.12152392 256.77565354 C34.92960099 256.78595193 38.73758411 256.78374706 42.54566896 256.77947295 C46.65276572 256.77700907 50.75983966 256.78601565 54.8669281 256.79351044 C62.91281552 256.80626871 70.95866958 256.80804974 79.00456541 256.80571017 C85.54330071 256.80392818 92.08202588 256.8056741 98.62075996 256.80993462 C99.55087155 256.81052981 100.48098314 256.81112499 101.43927993 256.81173822 C103.32870988 256.81294995 105.21813982 256.81416409 107.10756976 256.8153806 C124.83198503 256.8262604 142.55638127 256.82409151 160.28079761 256.81799575 C176.50096519 256.8128257 192.72107274 256.82408357 208.94122844 256.84309397 C225.59102411 256.86245853 242.24079135 256.87073083 258.89059836 256.86697072 C268.24024116 256.86505663 277.58983285 256.8675664 286.93946648 256.88168526 C294.89849086 256.8935824 302.85743267 256.89502269 310.81645816 256.88289509 C314.87794934 256.87699477 318.93928934 256.87593869 323.00077057 256.88789749 C326.71848176 256.89871697 330.43591484 256.89570017 334.1536128 256.88163581 C336.13624959 256.87771847 338.11889856 256.88856801 340.10150665 256.89993268 C341.28079036 256.89272614 342.46007407 256.8855196 343.67509365 256.87809467 C344.69079321 256.87814969 345.70649278 256.8782047 346.75297111 256.87826139 C350.23462415 256.42721957 352.63942363 255.28799971 355.64685059 253.50336456 C358.3748405 249.24495435 357.92924197 244.33466831 357.907547 239.43856049 C357.91137254 238.52380603 357.91519809 237.60905157 357.91913956 236.66657728 C357.92946081 233.60047727 357.92547905 230.53456482 357.92150879 227.46845245 C357.92585573 225.2705798 357.93103881 223.07270866 357.93699646 220.87483978 C357.95039923 214.903832 357.95096373 208.93288747 357.94843316 202.96186757 C357.94736437 197.9790939 357.95224442 192.99633307 357.95703858 188.01356214 C357.96877287 175.58769123 357.96790614 163.16184851 357.96148177 150.73597657 C357.95631232 139.94767913 357.96756904 129.15947198 357.98657999 118.3711924 C358.00595705 107.29009725 358.0139232 96.20903881 358.01045674 85.12792581 C358.00864206 78.90818693 358.01129862 72.68853074 358.02517128 66.46880531 C358.03772692 60.62063129 358.03582688 54.77263826 358.02276039 48.92446709 C358.02039018 46.77744359 358.02314516 44.63040744 358.03138351 42.48339844 C358.04181481 39.55377186 358.0337792 36.62475668 358.02107239 33.69515228 C358.02844667 32.84446751 358.03582096 31.99378274 358.04341871 31.11731964 C357.99872976 26.22371359 357.54971638 22.64161934 354.64685059 18.50336456 C350.95525402 16.62424421 347.91138852 16.25239731 343.80093479 16.24888897 C342.03592085 16.24014068 342.03592085 16.24014068 340.23525006 16.23121566 C338.94654835 16.23499498 337.65784665 16.2387743 336.33009338 16.24266815 C334.94411925 16.23964739 333.55814677 16.23575828 332.17217726 16.23107558 C328.36410018 16.2207772 324.55611706 16.22298207 320.74803221 16.22725618 C316.64093545 16.22972005 312.53386151 16.22071348 308.42677307 16.21321869 C300.38088565 16.20046042 292.33503159 16.19867939 284.28913576 16.20101895 C277.75040046 16.20280094 271.2116753 16.20105503 264.67294121 16.19679451 C263.27777382 16.19590173 263.27777382 16.19590173 261.85442124 16.19499091 C259.96499129 16.19377918 258.07556135 16.19256504 256.18613141 16.19134853 C238.46171615 16.18046873 220.7373199 16.18263762 203.01290356 16.18873338 C186.79273598 16.19390342 170.57262844 16.18264555 154.35247273 16.16363516 C137.70267706 16.1442706 121.05290982 16.1359983 104.40310282 16.13975841 C95.05346001 16.14167249 85.70386832 16.13916272 76.3542347 16.12504387 C68.39521031 16.11314673 60.4362685 16.11170644 52.47724301 16.12383404 C48.41575184 16.12973435 44.35441183 16.13079043 40.2929306 16.11883163 C36.57521942 16.10801215 32.85778633 16.11102895 29.14008837 16.12509332 C27.15745158 16.12901066 25.17480261 16.11816111 23.19219452 16.10679644 C22.01291081 16.11400299 20.8336271 16.12120953 19.61860752 16.12863445 C18.60290796 16.12857944 17.5872084 16.12852442 16.54073006 16.12846774 C13.05907702 16.57950956 10.65427754 17.71872942 7.64685059 19.50336456 Z " fill="#000000" transform="translate(74.3531494140625,31.49663543701172)"/>
<path d="M0 0 C128.7 0 257.4 0 390 0 C416 76.14285714 416 76.14285714 416 80 C395.87 80 375.74 80 355 80 C354.67 70.76 354.34 61.52 354 52 C351.62532266 42.33945573 351.62532266 42.33945573 344.9375 35.6875 C341.67922235 33.9211335 339.04545676 33.88982015 335.375 33.875 C332.50390625 33.7265625 332.50390625 33.7265625 330 33 C328.26057408 30.61880116 327.31238482 28.24971692 326.203125 25.5234375 C324.57090039 22.10000536 322.80130945 20.56191155 319.51953125 18.7421875 C315.11330291 17.44422876 310.70490945 17.91660179 306.171875 18.3125 C303 18 303 18 300.734375 15.61328125 C300.16203125 14.75089844 299.5896875 13.88851563 299 13 C293.59702532 9.08284336 287.41301891 9.08505358 281 10 C276.51333242 11.84122679 273.68844783 13.96732825 271 18 C268.0234375 18.1171875 268.0234375 18.1171875 264.375 17.875 C258.74659816 17.7654307 255.07670572 18.01452607 250.55078125 21.4453125 C244.5561291 27.45506453 243.94505512 34.56828346 243.68359375 42.7109375 C243.64169922 43.95488281 243.59980469 45.19882812 243.55664062 46.48046875 C243.49766602 48.40826172 243.49766602 48.40826172 243.4375 50.375 C243.39431641 51.68339844 243.35113281 52.99179687 243.30664062 54.33984375 C243.20087571 57.55979797 243.09878421 60.77982531 243 64 C241.76044556 64.29656494 241.76044556 64.29656494 240.49584961 64.59912109 C239.41311768 64.86289551 238.33038574 65.12666992 237.21484375 65.3984375 C236.14097412 65.65802246 235.06710449 65.91760742 233.96069336 66.18505859 C229.30690662 67.46602999 226.21735146 69.00668372 223.65600586 73.20068359 C223.00450562 74.41232178 223.00450562 74.41232178 222.33984375 75.6484375 C221.89890381 76.46231934 221.45796387 77.27620117 221.00366211 78.11474609 C220.67245361 78.73687988 220.34124512 79.35901367 220 80 C212.98988378 80.25391045 205.98095438 80.42880663 198.96728516 80.54931641 C196.58271991 80.59955531 194.19846197 80.66776266 191.81494141 80.75439453 C188.38367029 80.87596937 184.95647169 80.93245546 181.5234375 80.9765625 C179.92935562 81.05398178 179.92935562 81.05398178 178.30307007 81.13296509 C175.22836135 81.13528609 172.89789443 81.03955028 170 80 C167.89025077 77.59324562 166.57523147 75.29318379 165.22476196 72.39730835 C163.34123097 68.71054741 160.84726861 67.27427851 157 66 C155.26237983 65.60263982 153.51671987 65.23924509 151.765625 64.90625 C150.42419434 64.64811523 150.42419434 64.64811523 149.05566406 64.38476562 C148.37729492 64.25779297 147.69892578 64.13082031 147 64 C146.98018066 63.19369141 146.96036133 62.38738281 146.93994141 61.55664062 C146.84414315 57.87078949 146.7346864 54.18546293 146.625 50.5 C146.57859375 48.59734375 146.57859375 48.59734375 146.53125 46.65625 C146.18084539 33.4149751 146.18084539 33.4149751 140 22 C134.27866919 17.27368325 129.44769821 17.77499245 122.20703125 18.34765625 C119 18 119 18 116.73046875 15.609375 C116.15941406 14.74828125 115.58835938 13.8871875 115 13 C109.59702532 9.08284336 103.41301891 9.08505358 97 10 C92.51333242 11.84122679 89.68844783 13.96732825 87 18 C84.0234375 18.1171875 84.0234375 18.1171875 80.375 17.875 C74.84783632 17.7844835 71.09296276 17.94476867 66.578125 21.2265625 C64.6412717 23.40312537 63.78288515 25.55782101 62.6875 28.25 C61.53125 30.90234375 61.53125 30.90234375 60 33 C57.18055356 33.78962345 54.71097132 33.8124051 51.7890625 33.82421875 C47.30164837 34.10703897 44.26826947 36.00151693 41 39 C32.37775923 49.75273631 35.4080288 68.5751937 35 80 C14.87 80 -5.26 80 -26 80 C-24.7320715 74.29432174 -23.50668306 69.14697965 -21.67749023 63.67602539 C-21.45447235 63.00492737 -21.23145447 62.33382935 -21.00167847 61.64239502 C-20.27498405 59.45934164 -19.541927 57.2784875 -18.80859375 55.09765625 C-18.29783105 53.56843083 -17.7874254 52.03908611 -17.27735901 50.5096283 C-16.21344657 47.32246938 -15.14661376 44.13630954 -14.07739258 40.95092773 C-12.70576034 36.8644703 -11.33942858 32.77626601 -9.97498989 28.68740177 C-8.92373086 25.53777385 -7.87077457 22.38871572 -6.81718636 19.23986626 C-6.31254307 17.73163601 -5.80818163 16.22331142 -5.30410576 14.71489143 C-4.60201321 12.61546793 -3.89789431 10.51673581 -3.19311523 8.41821289 C-2.79277573 7.22402237 -2.39243622 6.02983185 -1.97996521 4.79945374 C-1 2 -1 2 0 0 Z M13 19 C11.57958179 21.84083641 11.68547728 23.85477278 12 27 C14.23206431 29.84780619 15.54992999 30.84997666 19 32 C24.64166944 32.36994554 28.0833458 32.11787827 33 29 C34.42041821 26.15916359 34.31452272 24.14522722 34 21 C31.76793569 18.15219381 30.45007001 17.15002334 27 16 C21.35833056 15.63005446 17.9166542 15.88212173 13 19 Z M165 19 C163.57958179 21.84083641 163.68547728 23.85477278 164 27 C166.23206431 29.84780619 167.54992999 30.84997666 171 32 C176.64166944 32.36994554 180.0833458 32.11787827 185 29 C186.42041821 26.15916359 186.31452272 24.14522722 186 21 C183.76793569 18.15219381 182.45007001 17.15002334 179 16 C173.35833056 15.63005446 169.9166542 15.88212173 165 19 Z M205 19 C203.57958179 21.84083641 203.68547728 23.85477278 204 27 C206.23206431 29.84780619 207.54992999 30.84997666 211 32 C216.64166944 32.36994554 220.0833458 32.11787827 225 29 C226.42041821 26.15916359 226.31452272 24.14522722 226 21 C223.76793569 18.15219381 222.45007001 17.15002334 219 16 C213.35833056 15.63005446 209.9166542 15.88212173 205 19 Z M357 19 C355.57958179 21.84083641 355.68547728 23.85477278 356 27 C358.23206431 29.84780619 359.54992999 30.84997666 363 32 C368.64166944 32.36994554 372.0833458 32.11787827 377 29 C378.42041821 26.15916359 378.31452272 24.14522722 378 21 C375.76793569 18.15219381 374.45007001 17.15002334 371 16 C365.35833056 15.63005446 361.9166542 15.88212173 357 19 Z M5 51 C3.57958179 53.84083641 3.68547728 55.85477278 4 59 C6.23206431 61.84780619 7.54992999 62.84997666 11 64 C16.64166944 64.36994554 20.0833458 64.11787827 25 61 C26.42041821 58.15916359 26.31452272 56.14522722 26 53 C23.76793569 50.15219381 22.45007001 49.15002334 19 48 C13.35833056 47.63005446 9.9166542 47.88212173 5 51 Z M165 51 C163.57958179 53.84083641 163.68547728 55.85477278 164 59 C166.23206431 61.84780619 167.54992999 62.84997666 171 64 C176.64166944 64.36994554 180.0833458 64.11787827 185 61 C186.42041821 58.15916359 186.31452272 56.14522722 186 53 C183.76793569 50.15219381 182.45007001 49.15002334 179 48 C173.35833056 47.63005446 169.9166542 47.88212173 165 51 Z M205 51 C203.57958179 53.84083641 203.68547728 55.85477278 204 59 C206.23206431 61.84780619 207.54992999 62.84997666 211 64 C216.64166944 64.36994554 220.0833458 64.11787827 225 61 C226.42041821 58.15916359 226.31452272 56.14522722 226 53 C223.76793569 50.15219381 222.45007001 49.15002334 219 48 C213.35833056 47.63005446 209.9166542 47.88212173 205 51 Z M365 51 C363.57958179 53.84083641 363.68547728 55.85477278 364 59 C366.23206431 61.84780619 367.54992999 62.84997666 371 64 C376.64166944 64.36994554 380.0833458 64.11787827 385 61 C386.42041821 58.15916359 386.31452272 56.14522722 386 53 C383.76793569 50.15219381 382.45007001 49.15002334 379 48 C373.35833056 47.63005446 369.9166542 47.88212173 365 51 Z " fill="#000000" transform="translate(61,320)"/>
<path d="M0 0 C3 0.125 3 0.125 4 1.125 C4.11260503 2.81657983 4.15678314 4.51276744 4.17358398 6.20800781 C4.18707382 7.29293518 4.20056366 8.37786255 4.21446228 9.4956665 C4.22490067 10.67787781 4.23533905 11.86008911 4.24609375 13.078125 C4.27903859 15.55859719 4.31225013 18.03906586 4.34570312 20.51953125 C4.39310478 24.44772855 4.43750913 28.37591218 4.47680664 32.30419922 C4.51652263 36.08316416 4.56807898 39.86182653 4.62109375 43.640625 C4.6295079 44.81473938 4.63792206 45.98885376 4.64659119 47.19854736 C4.67155418 48.84485138 4.67155418 48.84485138 4.69702148 50.52441406 C4.70732895 51.48736389 4.71763641 52.45031372 4.72825623 53.44244385 C5.02304812 56.35252265 5.69417459 58.51295285 7 61.125 C9.79870027 62.52435013 11.90498792 62.37765405 15 62.125 C17.55949546 60.27157225 17.97918798 59.18743607 19 56.125 C19.10937012 54.58119363 19.16596127 53.0333372 19.18945312 51.48583984 C19.20617065 50.54831879 19.22288818 49.61079773 19.2401123 48.64486694 C19.25368774 47.63542023 19.26726318 46.62597351 19.28125 45.5859375 C19.29965942 44.5493399 19.31806885 43.51274231 19.33703613 42.44473267 C19.41583516 38.00199848 19.48364718 33.55911252 19.55224609 29.11621094 C19.60382188 25.87687324 19.66111652 22.63767214 19.71875 19.3984375 C19.73232544 18.38494232 19.74590088 17.37144714 19.7598877 16.32723999 C19.77660522 15.39602325 19.79332275 14.46480652 19.81054688 13.50537109 C19.82933899 12.26985001 19.82933899 12.26985001 19.84851074 11.0093689 C20 9.125 20 9.125 21 8.125 C24 8 24 8 27 8.125 C28.87261062 9.99761062 28.15449271 13.17991471 28.17358398 15.67675781 C28.180271 16.36137589 28.18695801 17.04599396 28.19384766 17.75135803 C28.20793019 19.24315843 28.21981396 20.73498079 28.22979546 22.22681427 C28.24616979 24.58909506 28.26940814 26.95121436 28.29469299 29.31341553 C28.3655517 36.03161597 28.42549299 42.74988423 28.47680664 49.46826172 C28.50864709 53.57382762 28.5499418 57.67921156 28.59700203 61.78462982 C28.61299938 63.34905461 28.62533142 64.91352139 28.63390923 66.47800446 C28.6461 68.67074473 28.67026703 70.86305989 28.69702148 73.05566406 C28.71248268 74.92644623 28.71248268 74.92644623 28.72825623 76.83502197 C28.99360543 80.04758156 29.51477491 82.27736411 31 85.125 C33.79870027 86.52435013 35.90498792 86.37765405 39 86.125 C41.55949546 84.27157225 41.97918798 83.18743607 43 80.125 C43.14889747 78.28033558 43.2479101 76.43142725 43.31640625 74.58203125 C43.35830078 73.50888672 43.40019531 72.43574219 43.44335938 71.33007812 C43.48267578 70.21052734 43.52199219 69.09097656 43.5625 67.9375 C43.62727539 66.24077148 43.62727539 66.24077148 43.69335938 64.50976562 C43.79949099 61.71496646 43.90154385 58.92007838 44 56.125 C46.33294775 56.08258277 48.66702567 56.08407063 51 56.125 C52.64125386 57.76625386 52.20260022 59.67988868 52.2722168 61.94506836 C52.30441818 62.97381577 52.33661957 64.00256317 52.36979675 65.06248474 C52.48053646 69.8064633 52.56296486 74.55030067 52.62475586 79.29516602 C52.66632379 81.79102089 52.72759989 84.28663137 52.80932617 86.78149414 C53.51634067 108.71643673 53.51634067 108.71643673 49.81518555 113.90014648 C47.33618532 116.3392171 44.86218003 118.17422425 42 120.125 C35.44250687 129.46909204 36.64807585 141.10771057 36 152.125 C12.24 152.125 -11.52 152.125 -36 152.125 C-36.33 146.515 -36.66 140.905 -37 135.125 C-37.96101085 127.34954856 -39.69186986 122.86381007 -45 117.125 C-45.55903519 116.77583023 -46.11807037 116.42666046 -46.69404602 116.06690979 C-50.57159232 113.24458039 -51.86112091 110.99382238 -52.62504578 106.21473694 C-52.92214355 101.10466091 -52.81391148 95.9977142 -52.71875 90.8828125 C-52.70822322 88.98950575 -52.70065795 87.09618043 -52.69592285 85.20285034 C-52.67493145 80.23454291 -52.61104596 75.26765733 -52.53894043 70.29986572 C-52.48698615 66.23073813 -52.46509226 62.16170852 -52.44481659 58.09231758 C-52.40260752 49.70473417 -52.34139737 41.31707152 -52.22460938 32.93017578 C-52.21720734 32.1499556 -52.2098053 31.36973541 -52.20217896 30.56587219 C-52.11556138 25.24056138 -52.11556138 25.24056138 -51 24.125 C-48 24 -48 24 -45 24.125 C-43.11024788 26.01475212 -43.80165379 29.31052759 -43.75390625 31.828125 C-43.72094862 33.21484961 -43.68773732 34.6015682 -43.65429688 35.98828125 C-43.60701001 38.17817764 -43.56262508 40.36805308 -43.52319336 42.55810547 C-43.48328445 44.66921509 -43.43176601 46.77980538 -43.37890625 48.890625 C-43.3538501 50.15680664 -43.32879395 51.42298828 -43.30297852 52.72753906 C-43.01317014 55.9773161 -42.50314922 58.2446582 -41 61.125 C-38.20129973 62.52435013 -36.09501208 62.37765405 -33 62.125 C-30.44050454 60.27157225 -30.02081202 59.18743607 -29 56.125 C-28.89062988 54.58119363 -28.83403873 53.0333372 -28.81054688 51.48583984 C-28.79382935 50.54831879 -28.77711182 49.61079773 -28.7598877 48.64486694 C-28.74631226 47.63542023 -28.73273682 46.62597351 -28.71875 45.5859375 C-28.70034058 44.5493399 -28.68193115 43.51274231 -28.66296387 42.44473267 C-28.58416484 38.00199848 -28.51635282 33.55911252 -28.44775391 29.11621094 C-28.39617812 25.87687324 -28.33888348 22.63767214 -28.28125 19.3984375 C-28.26767456 18.38494232 -28.25409912 17.37144714 -28.2401123 16.32723999 C-28.22339478 15.39602325 -28.20667725 14.46480652 -28.18945312 13.50537109 C-28.17066101 12.26985001 -28.17066101 12.26985001 -28.15148926 11.0093689 C-28 9.125 -28 9.125 -27 8.125 C-24 8 -24 8 -21 8.125 C-19.42555273 9.69944727 -19.85185136 11.28718936 -19.82641602 13.47363281 C-19.81292618 14.39839417 -19.79943634 15.32315552 -19.78553772 16.27593994 C-19.77509933 17.28316101 -19.76466095 18.29038208 -19.75390625 19.328125 C-19.72095862 21.44401441 -19.68774713 23.55989973 -19.65429688 25.67578125 C-19.60692026 29.02454714 -19.56251999 32.37329751 -19.52319336 35.72216797 C-19.48343556 38.94516885 -19.43188712 42.16781817 -19.37890625 45.390625 C-19.3704921 46.38974915 -19.36207794 47.38887329 -19.35340881 48.41827393 C-19.31741452 55.02520438 -19.31741452 55.02520438 -17 61.125 C-14.20129973 62.52435013 -12.09501208 62.37765405 -9 62.125 C-6.44050454 60.27157225 -6.02081202 59.18743607 -5 56.125 C-4.88903082 54.33614732 -4.83375577 52.54360586 -4.81054688 50.75146484 C-4.78547058 49.10493423 -4.78547058 49.10493423 -4.7598877 47.42514038 C-4.74631226 46.24070343 -4.73273682 45.05626648 -4.71875 43.8359375 C-4.70034058 42.62177155 -4.68193115 41.40760559 -4.66296387 40.15664673 C-4.5841178 34.9492491 -4.51635855 29.74172075 -4.44775391 24.53417969 C-4.39618455 20.73886398 -4.33888482 16.94366514 -4.28125 13.1484375 C-4.26767456 11.95995209 -4.25409912 10.77146667 -4.2401123 9.54696655 C-4.21503601 7.90989243 -4.21503601 7.90989243 -4.18945312 6.23974609 C-4.17066101 4.7910463 -4.17066101 4.7910463 -4.15148926 3.31307983 C-3.91509627 -0.10133211 -3.49557055 0.14564877 0 0 Z " fill="#000000" transform="translate(164,343.875)"/>
<path d="M0 0 C3 0.125 3 0.125 4 1.125 C4.11260503 2.81657983 4.15678314 4.51276744 4.17358398 6.20800781 C4.18707382 7.29293518 4.20056366 8.37786255 4.21446228 9.4956665 C4.22490067 10.67787781 4.23533905 11.86008911 4.24609375 13.078125 C4.27903859 15.55859719 4.31225013 18.03906586 4.34570312 20.51953125 C4.39310478 24.44772855 4.43750913 28.37591218 4.47680664 32.30419922 C4.51652263 36.08316416 4.56807898 39.86182653 4.62109375 43.640625 C4.6295079 44.81473938 4.63792206 45.98885376 4.64659119 47.19854736 C4.67155418 48.84485138 4.67155418 48.84485138 4.69702148 50.52441406 C4.70732895 51.48736389 4.71763641 52.45031372 4.72825623 53.44244385 C5.02304812 56.35252265 5.69417459 58.51295285 7 61.125 C9.79870027 62.52435013 11.90498792 62.37765405 15 62.125 C17.55949546 60.27157225 17.97918798 59.18743607 19 56.125 C19.10937012 54.58119363 19.16596127 53.0333372 19.18945312 51.48583984 C19.20617065 50.54831879 19.22288818 49.61079773 19.2401123 48.64486694 C19.25368774 47.63542023 19.26726318 46.62597351 19.28125 45.5859375 C19.29965942 44.5493399 19.31806885 43.51274231 19.33703613 42.44473267 C19.41583516 38.00199848 19.48364718 33.55911252 19.55224609 29.11621094 C19.60382188 25.87687324 19.66111652 22.63767214 19.71875 19.3984375 C19.73232544 18.38494232 19.74590088 17.37144714 19.7598877 16.32723999 C19.77660522 15.39602325 19.79332275 14.46480652 19.81054688 13.50537109 C19.82933899 12.26985001 19.82933899 12.26985001 19.84851074 11.0093689 C20 9.125 20 9.125 21 8.125 C24 8 24 8 27 8.125 C28.57444727 9.69944727 28.14814864 11.28718936 28.17358398 13.47363281 C28.18707382 14.39839417 28.20056366 15.32315552 28.21446228 16.27593994 C28.23011986 17.78677155 28.23011986 17.78677155 28.24609375 19.328125 C28.27904138 21.44401441 28.31225287 23.55989973 28.34570312 25.67578125 C28.39307974 29.02454714 28.43748001 32.37329751 28.47680664 35.72216797 C28.51656444 38.94516885 28.56811288 42.16781817 28.62109375 45.390625 C28.6295079 46.38974915 28.63792206 47.38887329 28.64659119 48.41827393 C28.68258548 55.02520438 28.68258548 55.02520438 31 61.125 C33.79870027 62.52435013 35.90498792 62.37765405 39 62.125 C41.55949546 60.27157225 41.97918798 59.18743607 43 56.125 C43.1400723 53.78095506 43.22554606 51.43350305 43.28125 49.0859375 C43.29965942 48.40447662 43.31806885 47.72301575 43.33703613 47.02090454 C43.41566686 44.10751914 43.48366731 41.19391019 43.55224609 38.28027344 C43.60384523 36.15287399 43.66112146 34.02568075 43.71875 31.8984375 C43.74904297 30.62403809 43.77933594 29.34963867 43.81054688 28.03662109 C44 25.125 44 25.125 45 24.125 C48 24 48 24 51 24.125 C53.0023211 26.1273211 52.22931329 30.13626248 52.2722168 32.88256836 C52.28842575 33.69570496 52.3046347 34.50884155 52.32133484 35.34661865 C52.46195853 42.87596376 52.53975434 50.40650685 52.60025311 57.93688107 C52.64115796 62.99542526 52.70133664 68.05202401 52.80932617 73.10961914 C52.91339448 77.99987446 52.96770968 82.8883976 52.98771095 87.77969551 C53.00359459 89.63889933 53.03671425 91.49804335 53.08786583 93.35661125 C53.46967655 107.9356089 53.46967655 107.9356089 49.79507446 113.40969849 C47.09692383 116.08422852 47.09692383 116.08422852 44.4021759 118.21534729 C38.6902511 122.7561441 37.99959759 128.12781688 37 135.125 C36.67 140.735 36.34 146.345 36 152.125 C12.24 152.125 -11.52 152.125 -36 152.125 C-36.33 146.515 -36.66 140.905 -37 135.125 C-37.96101085 127.34954856 -39.69186986 122.86381007 -45 117.125 C-45.55903519 116.69461929 -46.11807037 116.26423859 -46.69404602 115.82081604 C-49.7199186 113.31054848 -51.71114024 111.35802916 -52.62504578 107.45692444 C-52.82528308 104.24454628 -52.81351761 101.10008031 -52.71875 97.8828125 C-52.71121704 96.71869843 -52.70368408 95.55458435 -52.69592285 94.35519409 C-52.66347973 90.65223461 -52.58177857 86.95216395 -52.5 83.25 C-52.47345205 80.7370101 -52.44998041 78.22398569 -52.4296875 75.7109375 C-52.37940448 71.13775813 -52.32376173 66.56508049 -52.22460938 61.99267578 C-52.20571655 61.07447052 -52.18682373 60.15626526 -52.1673584 59.2102356 C-52 57.125 -52 57.125 -51 56.125 C-48.66702567 56.08407063 -46.33294775 56.08258277 -44 56.125 C-43.970271 57.17627075 -43.970271 57.17627075 -43.93994141 58.2487793 C-43.84443834 61.43705162 -43.73486129 64.62469147 -43.625 67.8125 C-43.5940625 68.91529297 -43.563125 70.01808594 -43.53125 71.15429688 C-43.49257813 72.22099609 -43.45390625 73.28769531 -43.4140625 74.38671875 C-43.3826416 75.36600342 -43.3512207 76.34528809 -43.31884766 77.35424805 C-42.98177218 80.28339782 -42.31391621 82.49045499 -41 85.125 C-38.20129973 86.52435013 -36.09501208 86.37765405 -33 86.125 C-30.44050454 84.27157225 -30.02081202 83.18743607 -29 80.125 C-28.88679419 77.84617431 -28.83338357 75.56423639 -28.81054688 73.28271484 C-28.80225357 72.59137955 -28.79396027 71.90004425 -28.78541565 71.1877594 C-28.76803346 69.6883509 -28.75286165 68.18891552 -28.73963928 66.68946457 C-28.71860614 64.31972928 -28.69158631 61.95012984 -28.66296387 59.58047485 C-28.59314458 53.69761913 -28.53363585 47.81466726 -28.47393799 41.93170166 C-28.42308814 36.95706967 -28.36830207 31.98251229 -28.30812073 27.00798416 C-28.28146691 24.66748492 -28.26070413 22.32697899 -28.2401123 19.98641968 C-28.22351744 18.56044173 -28.20664633 17.13446696 -28.18945312 15.70849609 C-28.17066101 13.83343887 -28.17066101 13.83343887 -28.15148926 11.92050171 C-28 9.125 -28 9.125 -27 8.125 C-24 8 -24 8 -21 8.125 C-19.42555273 9.69944727 -19.85185136 11.28718936 -19.82641602 13.47363281 C-19.81292618 14.39839417 -19.79943634 15.32315552 -19.78553772 16.27593994 C-19.77509933 17.28316101 -19.76466095 18.29038208 -19.75390625 19.328125 C-19.72095862 21.44401441 -19.68774713 23.55989973 -19.65429688 25.67578125 C-19.60692026 29.02454714 -19.56251999 32.37329751 -19.52319336 35.72216797 C-19.48343556 38.94516885 -19.43188712 42.16781817 -19.37890625 45.390625 C-19.3704921 46.38974915 -19.36207794 47.38887329 -19.35340881 48.41827393 C-19.31741452 55.02520438 -19.31741452 55.02520438 -17 61.125 C-14.20129973 62.52435013 -12.09501208 62.37765405 -9 62.125 C-6.44050454 60.27157225 -6.02081202 59.18743607 -5 56.125 C-4.88903082 54.33614732 -4.83375577 52.54360586 -4.81054688 50.75146484 C-4.78547058 49.10493423 -4.78547058 49.10493423 -4.7598877 47.42514038 C-4.74631226 46.24070343 -4.73273682 45.05626648 -4.71875 43.8359375 C-4.70034058 42.62177155 -4.68193115 41.40760559 -4.66296387 40.15664673 C-4.5841178 34.9492491 -4.51635855 29.74172075 -4.44775391 24.53417969 C-4.39618455 20.73886398 -4.33888482 16.94366514 -4.28125 13.1484375 C-4.26767456 11.95995209 -4.25409912 10.77146667 -4.2401123 9.54696655 C-4.21503601 7.90989243 -4.21503601 7.90989243 -4.18945312 6.23974609 C-4.17066101 4.7910463 -4.17066101 4.7910463 -4.15148926 3.31307983 C-3.91509627 -0.10133211 -3.49557055 0.14564877 0 0 Z " fill="#000000" transform="translate(348,343.875)"/>
<path d="M0 0 C21.12 0 42.24 0 64 0 C64 3.96 64 7.92 64 12 C60 16 60 16 57.2411499 16.48101807 C56.18413879 16.47213562 55.12712769 16.46325317 54.03808594 16.45410156 C52.83714294 16.45379944 51.63619995 16.45349731 50.39886475 16.45318604 C49.10708313 16.43254089 47.81530151 16.41189575 46.484375 16.390625 C45.14488571 16.38316071 43.80538548 16.37746866 42.46588135 16.37347412 C38.94748564 16.35823213 35.42975485 16.31896418 31.91162109 16.2746582 C28.31877639 16.23367364 24.7258238 16.2154564 21.1328125 16.1953125 C14.08824433 16.15246729 7.04423564 16.0821301 0 16 C0 10.72 0 5.44 0 0 Z " fill="#000000" transform="translate(416,416)"/>
<path d="M0 0 C21.12 0 42.24 0 64 0 C64 5.28 64 10.56 64 16 C56.24608559 16.09040438 48.49245964 16.16377491 40.73816299 16.20724869 C37.13741714 16.22811513 33.53705084 16.25641421 29.93652344 16.30175781 C26.46112087 16.34525125 22.98608312 16.36914421 19.51042938 16.37950897 C17.54054216 16.39048615 15.57080153 16.421707 13.60113525 16.45318604 C11.79972076 16.45363922 11.79972076 16.45363922 9.96191406 16.45410156 C8.3763974 16.46742523 8.3763974 16.46742523 6.7588501 16.48101807 C4 16 4 16 0 12 C0 8.04 0 4.08 0 0 Z " fill="#000000" transform="translate(32,416)"/>
<path d="M0 0 C15.84 0 31.68 0 48 0 C48 5.28 48 10.56 48 16 C32.16 16 16.32 16 0 16 C0 10.72 0 5.44 0 0 Z " fill="#000000" transform="translate(232,416)"/>
</svg>
